<svg xmlns="http://www.w3.org/2000/svg" viewBox="0 0 900 620"><defs><linearGradient id="g" x1="0" y1="0" x2="1" y2="1"><stop stop-color="#d8c3a2"/><stop offset=".55" stop-color="#8d7459"/><stop offset="1" stop-color="#2b241f"/></linearGradient><filter id="n"><feTurbulence type="fractalNoise" baseFrequency=".7" numOctaves="2" stitchTiles="stitch"/><feColorMatrix type="saturate" values="0"/><feComponentTransfer><feFuncA type="table" tableValues="0 .07"/></feComponentTransfer><feBlend in="SourceGraphic" mode="multiply"/></filter></defs><rect width="900" height="620" fill="url(#g)"/><rect width="900" height="620" filter="url(#n)" opacity=".65"/><path d="M80 455h720" stroke="#1f1a16" stroke-width="22" stroke-linecap="round"/><path d="M170 420h450" stroke="#201a16" stroke-width="30" stroke-linecap="round"/><path d="M230 485l-42 70M650 485l42 70" stroke="#1f1a16" stroke-width="18" stroke-linecap="round"/><circle cx="430" cy="240" r="38" fill="#1b1714"/><path d="M410 280c-60 38-96 78-148 118" fill="none" stroke="#1b1714" stroke-width="32" stroke-linecap="round"/><path d="M450 285c70 48 120 82 205 116" fill="none" stroke="#1b1714" stroke-width="32" stroke-linecap="round"/><path d="M360 342c76 2 142 14 202 38" fill="none" stroke="#f3eadf" stroke-width="22" stroke-linecap="round" opacity=".42"/><path d="M655 400l76-92" stroke="#1b1714" stroke-width="18" stroke-linecap="round"/><path d="M110 90c110-45 230-60 360-34s230 6 330-22" fill="none" stroke="#f6ead8" stroke-opacity=".25" stroke-width="2"/><text x="58" y="102" font-family="Georgia" font-size="42" fill="#f6ead8" opacity=".85">Reformer Flow</text></svg>
